<?xml version="1.0" encoding="UTF-8" standalone="no"?>
<svg
   xmlns:dc="http://purl.org/dc/elements/1.1/"
   xmlns:cc="http://creativecommons.org/ns#"
   xmlns:rdf="http://www.w3.org/1999/02/22-rdf-syntax-ns#"
   xmlns:svg="http://www.w3.org/2000/svg"
   xmlns="http://www.w3.org/2000/svg"
   viewBox="0 0 1921.3333 712"
   height="712"
   width="1921.3333"
   xml:space="preserve"
   id="svg2"
   version="1.1"><metadata
     id="metadata8"><rdf:RDF><cc:Work
         rdf:about=""><dc:format>image/svg+xml</dc:format><dc:type
           rdf:resource="http://purl.org/dc/dcmitype/StillImage" /></cc:Work></rdf:RDF></metadata><defs
     id="defs6"><clipPath
       id="clipPath20"
       clipPathUnits="userSpaceOnUse"><path
         id="path18"
         d="M 0,5 V 5340 H 14410 V 5 Z" /></clipPath><clipPath
       id="clipPath214"
       clipPathUnits="userSpaceOnUse"><path
         id="path212"
         d="m 1873.33,590.832 h 11170 v 4349.17 h -11170 z" /></clipPath><clipPath
       id="clipPath226"
       clipPathUnits="userSpaceOnUse"><path
         id="path224"
         d="M 0,5 H 14410 V 5340 H 0 Z" /></clipPath></defs><g
     transform="matrix(1.3333333,0,0,-1.3333333,0,712)"
     id="g10"><g
       transform="scale(0.1)"
       id="g12"><g
         id="g14"><g
           clip-path="url(#clipPath20)"
           id="g16"><path
             id="path22"
             style="fill:#ffffff;fill-opacity:1;fill-rule:nonzero;stroke:none"
             d="M 0,5 H 14410 V 5340 H 0 Z" /><path
             id="path24"
             style="fill:#ffffff;fill-opacity:1;fill-rule:evenodd;stroke:none"
             d="m 1873.33,591.668 h 11169.2 v 4348.33 H 1873.33 Z" /><path
             id="path26"
             style="fill:none;stroke:#ffffff;stroke-width:5;stroke-linecap:butt;stroke-linejoin:round;stroke-miterlimit:10;stroke-dasharray:none;stroke-opacity:1"
             d="M 1873.33,591.668 V 4940 H 13042.5 V 591.668 H 1873.33" /><path
             id="path28"
             style="fill:none;stroke:#000000;stroke-width:5;stroke-linecap:butt;stroke-linejoin:round;stroke-miterlimit:10;stroke-dasharray:none;stroke-opacity:1"
             d="M 1873.33,4940 H 13042.5" /><path
             id="path30"
             style="fill:none;stroke:#000000;stroke-width:5;stroke-linecap:butt;stroke-linejoin:round;stroke-miterlimit:10;stroke-dasharray:none;stroke-opacity:1"
             d="M 1873.33,591.668 H 13042.5" /><path
             id="path32"
             style="fill:none;stroke:#000000;stroke-width:5;stroke-linecap:butt;stroke-linejoin:round;stroke-miterlimit:10;stroke-dasharray:none;stroke-opacity:1"
             d="M 13042.5,591.668 V 4940" /><path
             id="path34"
             style="fill:none;stroke:#000000;stroke-width:5;stroke-linecap:butt;stroke-linejoin:round;stroke-miterlimit:10;stroke-dasharray:none;stroke-opacity:1"
             d="M 1873.33,591.668 V 4940" /><path
             id="path36"
             style="fill:none;stroke:#000000;stroke-width:5;stroke-linecap:butt;stroke-linejoin:round;stroke-miterlimit:10;stroke-dasharray:none;stroke-opacity:1"
             d="M 1873.33,591.668 H 13042.5" /><path
             id="path38"
             style="fill:none;stroke:#000000;stroke-width:5;stroke-linecap:butt;stroke-linejoin:round;stroke-miterlimit:10;stroke-dasharray:none;stroke-opacity:1"
             d="M 1873.33,591.668 V 4940" /><path
             id="path40"
             style="fill:none;stroke:#000000;stroke-width:5;stroke-linecap:butt;stroke-linejoin:round;stroke-miterlimit:10;stroke-dasharray:none;stroke-opacity:1"
             d="m 1873.33,591.668 v 112.5" /><path
             id="path42"
             style="fill:none;stroke:#000000;stroke-width:5;stroke-linecap:butt;stroke-linejoin:round;stroke-miterlimit:10;stroke-dasharray:none;stroke-opacity:1"
             d="M 1873.33,4940 V 4828.34" /><g
             transform="scale(10)"
             id="g44"><text
               id="text48"
               style="font-variant:normal;font-weight:normal;font-size:10px;font-family:Helvetica;-inkscape-font-specification:Helvetica;writing-mode:lr-tb;fill:#000000;fill-opacity:1;fill-rule:nonzero;stroke:none"
               transform="matrix(1,0,0,-1,176,47.0832)"><tspan
                 id="tspan46"
                 y="0"
                 x="0 5.8400002 11.4">−20</tspan></text>
</g><path
             id="path50"
             style="fill:none;stroke:#000000;stroke-width:5;stroke-linecap:butt;stroke-linejoin:round;stroke-miterlimit:10;stroke-dasharray:none;stroke-opacity:1"
             d="m 3269.17,591.668 v 112.5" /><path
             id="path52"
             style="fill:none;stroke:#000000;stroke-width:5;stroke-linecap:butt;stroke-linejoin:round;stroke-miterlimit:10;stroke-dasharray:none;stroke-opacity:1"
             d="M 3269.17,4940 V 4828.34" /><g
             transform="scale(10)"
             id="g54"><text
               id="text58"
               style="font-variant:normal;font-weight:normal;font-size:10px;font-family:Helvetica;-inkscape-font-specification:Helvetica;writing-mode:lr-tb;fill:#000000;fill-opacity:1;fill-rule:nonzero;stroke:none"
               transform="matrix(1,0,0,-1,315.583,47.0832)"><tspan
                 id="tspan56"
                 y="0"
                 x="0 5.8400002 11.4">−15</tspan></text>
</g><path
             id="path60"
             style="fill:none;stroke:#000000;stroke-width:5;stroke-linecap:butt;stroke-linejoin:round;stroke-miterlimit:10;stroke-dasharray:none;stroke-opacity:1"
             d="m 4665,591.668 v 112.5" /><path
             id="path62"
             style="fill:none;stroke:#000000;stroke-width:5;stroke-linecap:butt;stroke-linejoin:round;stroke-miterlimit:10;stroke-dasharray:none;stroke-opacity:1"
             d="M 4665,4940 V 4828.34" /><g
             transform="scale(10)"
             id="g64"><text
               id="text68"
               style="font-variant:normal;font-weight:normal;font-size:10px;font-family:Helvetica;-inkscape-font-specification:Helvetica;writing-mode:lr-tb;fill:#000000;fill-opacity:1;fill-rule:nonzero;stroke:none"
               transform="matrix(1,0,0,-1,455.167,47.0832)"><tspan
                 id="tspan66"
                 y="0"
                 x="0 5.8400002 11.4">−10</tspan></text>
</g><path
             id="path70"
             style="fill:none;stroke:#000000;stroke-width:5;stroke-linecap:butt;stroke-linejoin:round;stroke-miterlimit:10;stroke-dasharray:none;stroke-opacity:1"
             d="m 6061.67,591.668 v 112.5" /><path
             id="path72"
             style="fill:none;stroke:#000000;stroke-width:5;stroke-linecap:butt;stroke-linejoin:round;stroke-miterlimit:10;stroke-dasharray:none;stroke-opacity:1"
             d="M 6061.67,4940 V 4828.34" /><g
             transform="scale(10)"
             id="g74"><text
               id="text78"
               style="font-variant:normal;font-weight:normal;font-size:10px;font-family:Helvetica;-inkscape-font-specification:Helvetica;writing-mode:lr-tb;fill:#000000;fill-opacity:1;fill-rule:nonzero;stroke:none"
               transform="matrix(1,0,0,-1,597.583,47.0832)"><tspan
                 id="tspan76"
                 y="0"
                 x="0 5.8400002">−5</tspan></text>
</g><path
             id="path80"
             style="fill:none;stroke:#000000;stroke-width:5;stroke-linecap:butt;stroke-linejoin:round;stroke-miterlimit:10;stroke-dasharray:none;stroke-opacity:1"
             d="m 7457.5,591.668 v 112.5" /><path
             id="path82"
             style="fill:none;stroke:#000000;stroke-width:5;stroke-linecap:butt;stroke-linejoin:round;stroke-miterlimit:10;stroke-dasharray:none;stroke-opacity:1"
             d="M 7457.5,4940 V 4828.34" /><g
             transform="scale(10)"
             id="g84"><text
               id="text88"
               style="font-variant:normal;font-weight:normal;font-size:10px;font-family:Helvetica;-inkscape-font-specification:Helvetica;writing-mode:lr-tb;fill:#000000;fill-opacity:1;fill-rule:nonzero;stroke:none"
               transform="matrix(1,0,0,-1,743,47.0832)"><tspan
                 id="tspan86"
                 y="0"
                 x="0">0</tspan></text>
</g><path
             id="path90"
             style="fill:none;stroke:#000000;stroke-width:5;stroke-linecap:butt;stroke-linejoin:round;stroke-miterlimit:10;stroke-dasharray:none;stroke-opacity:1"
             d="m 8853.34,591.668 v 112.5" /><path
             id="path92"
             style="fill:none;stroke:#000000;stroke-width:5;stroke-linecap:butt;stroke-linejoin:round;stroke-miterlimit:10;stroke-dasharray:none;stroke-opacity:1"
             d="M 8853.34,4940 V 4828.34" /><g
             transform="scale(10)"
             id="g94"><text
               id="text98"
               style="font-variant:normal;font-weight:normal;font-size:10px;font-family:Helvetica;-inkscape-font-specification:Helvetica;writing-mode:lr-tb;fill:#000000;fill-opacity:1;fill-rule:nonzero;stroke:none"
               transform="matrix(1,0,0,-1,882.584,47.0832)"><tspan
                 id="tspan96"
                 y="0"
                 x="0">5</tspan></text>
</g><path
             id="path100"
             style="fill:none;stroke:#000000;stroke-width:5;stroke-linecap:butt;stroke-linejoin:round;stroke-miterlimit:10;stroke-dasharray:none;stroke-opacity:1"
             d="m 10250,591.668 v 112.5" /><path
             id="path102"
             style="fill:none;stroke:#000000;stroke-width:5;stroke-linecap:butt;stroke-linejoin:round;stroke-miterlimit:10;stroke-dasharray:none;stroke-opacity:1"
             d="M 10250,4940 V 4828.34" /><g
             transform="scale(10)"
             id="g104"><text
               id="text108"
               style="font-variant:normal;font-weight:normal;font-size:10px;font-family:Helvetica;-inkscape-font-specification:Helvetica;writing-mode:lr-tb;fill:#000000;fill-opacity:1;fill-rule:nonzero;stroke:none"
               transform="matrix(1,0,0,-1,1019.5,47.0832)"><tspan
                 id="tspan106"
                 y="0"
                 x="0 5.5599999">10</tspan></text>
</g><path
             id="path110"
             style="fill:none;stroke:#000000;stroke-width:5;stroke-linecap:butt;stroke-linejoin:round;stroke-miterlimit:10;stroke-dasharray:none;stroke-opacity:1"
             d="m 11645.8,591.668 v 112.5" /><path
             id="path112"
             style="fill:none;stroke:#000000;stroke-width:5;stroke-linecap:butt;stroke-linejoin:round;stroke-miterlimit:10;stroke-dasharray:none;stroke-opacity:1"
             d="M 11645.8,4940 V 4828.34" /><g
             transform="scale(10)"
             id="g114"><text
               id="text118"
               style="font-variant:normal;font-weight:normal;font-size:10px;font-family:Helvetica;-inkscape-font-specification:Helvetica;writing-mode:lr-tb;fill:#000000;fill-opacity:1;fill-rule:nonzero;stroke:none"
               transform="matrix(1,0,0,-1,1159.08,47.0832)"><tspan
                 id="tspan116"
                 y="0"
                 x="0 5.5599999">15</tspan></text>
</g><path
             id="path120"
             style="fill:none;stroke:#000000;stroke-width:5;stroke-linecap:butt;stroke-linejoin:round;stroke-miterlimit:10;stroke-dasharray:none;stroke-opacity:1"
             d="m 13042.5,591.668 v 112.5" /><path
             id="path122"
             style="fill:none;stroke:#000000;stroke-width:5;stroke-linecap:butt;stroke-linejoin:round;stroke-miterlimit:10;stroke-dasharray:none;stroke-opacity:1"
             d="M 13042.5,4940 V 4828.34" /><g
             transform="scale(10)"
             id="g124"><text
               id="text128"
               style="font-variant:normal;font-weight:normal;font-size:10px;font-family:Helvetica;-inkscape-font-specification:Helvetica;writing-mode:lr-tb;fill:#000000;fill-opacity:1;fill-rule:nonzero;stroke:none"
               transform="matrix(1,0,0,-1,1298.75,47.0832)"><tspan
                 id="tspan126"
                 y="0"
                 x="0 5.5599999">20</tspan></text>
</g><path
             id="path130"
             style="fill:none;stroke:#000000;stroke-width:5;stroke-linecap:butt;stroke-linejoin:round;stroke-miterlimit:10;stroke-dasharray:none;stroke-opacity:1"
             d="M 1873.33,591.668 H 1985" /><path
             id="path132"
             style="fill:none;stroke:#000000;stroke-width:5;stroke-linecap:butt;stroke-linejoin:round;stroke-miterlimit:10;stroke-dasharray:none;stroke-opacity:1"
             d="M 13042.5,591.668 H 12930" /><g
             transform="scale(10)"
             id="g134"><text
               id="text138"
               style="font-variant:normal;font-weight:normal;font-size:10px;font-family:Helvetica;-inkscape-font-specification:Helvetica;writing-mode:lr-tb;fill:#000000;fill-opacity:1;fill-rule:nonzero;stroke:none"
               transform="matrix(1,0,0,-1,173.083,55.5)"><tspan
                 id="tspan136"
                 y="0"
                 x="0 5.8400002">−2</tspan></text>
</g><path
             id="path140"
             style="fill:none;stroke:#000000;stroke-width:5;stroke-linecap:butt;stroke-linejoin:round;stroke-miterlimit:10;stroke-dasharray:none;stroke-opacity:1"
             d="M 1873.33,1316.67 H 1985" /><path
             id="path142"
             style="fill:none;stroke:#000000;stroke-width:5;stroke-linecap:butt;stroke-linejoin:round;stroke-miterlimit:10;stroke-dasharray:none;stroke-opacity:1"
             d="M 13042.5,1316.67 H 12930" /><g
             transform="scale(10)"
             id="g144"><text
               id="text148"
               style="font-variant:normal;font-weight:normal;font-size:10px;font-family:Helvetica;-inkscape-font-specification:Helvetica;writing-mode:lr-tb;fill:#000000;fill-opacity:1;fill-rule:nonzero;stroke:none"
               transform="matrix(1,0,0,-1,178.917,128)"><tspan
                 id="tspan146"
                 y="0"
                 x="0">0</tspan></text>
</g><path
             id="path150"
             style="fill:none;stroke:#000000;stroke-width:5;stroke-linecap:butt;stroke-linejoin:round;stroke-miterlimit:10;stroke-dasharray:none;stroke-opacity:1"
             d="M 1873.33,2041.67 H 1985" /><path
             id="path152"
             style="fill:none;stroke:#000000;stroke-width:5;stroke-linecap:butt;stroke-linejoin:round;stroke-miterlimit:10;stroke-dasharray:none;stroke-opacity:1"
             d="M 13042.5,2041.67 H 12930" /><g
             transform="scale(10)"
             id="g154"><text
               id="text158"
               style="font-variant:normal;font-weight:normal;font-size:10px;font-family:Helvetica;-inkscape-font-specification:Helvetica;writing-mode:lr-tb;fill:#000000;fill-opacity:1;fill-rule:nonzero;stroke:none"
               transform="matrix(1,0,0,-1,178.917,200.5)"><tspan
                 id="tspan156"
                 y="0"
                 x="0">2</tspan></text>
</g><path
             id="path160"
             style="fill:none;stroke:#000000;stroke-width:5;stroke-linecap:butt;stroke-linejoin:round;stroke-miterlimit:10;stroke-dasharray:none;stroke-opacity:1"
             d="M 1873.33,2765.83 H 1985" /><path
             id="path162"
             style="fill:none;stroke:#000000;stroke-width:5;stroke-linecap:butt;stroke-linejoin:round;stroke-miterlimit:10;stroke-dasharray:none;stroke-opacity:1"
             d="M 13042.5,2765.83 H 12930" /><g
             transform="scale(10)"
             id="g164"><text
               id="text168"
               style="font-variant:normal;font-weight:normal;font-size:10px;font-family:Helvetica;-inkscape-font-specification:Helvetica;writing-mode:lr-tb;fill:#000000;fill-opacity:1;fill-rule:nonzero;stroke:none"
               transform="matrix(1,0,0,-1,178.917,272.917)"><tspan
                 id="tspan166"
                 y="0"
                 x="0">4</tspan></text>
</g><path
             id="path170"
             style="fill:none;stroke:#000000;stroke-width:5;stroke-linecap:butt;stroke-linejoin:round;stroke-miterlimit:10;stroke-dasharray:none;stroke-opacity:1"
             d="M 1873.33,3490.83 H 1985" /><path
             id="path172"
             style="fill:none;stroke:#000000;stroke-width:5;stroke-linecap:butt;stroke-linejoin:round;stroke-miterlimit:10;stroke-dasharray:none;stroke-opacity:1"
             d="M 13042.5,3490.83 H 12930" /><g
             transform="scale(10)"
             id="g174"><text
               id="text178"
               style="font-variant:normal;font-weight:normal;font-size:10px;font-family:Helvetica;-inkscape-font-specification:Helvetica;writing-mode:lr-tb;fill:#000000;fill-opacity:1;fill-rule:nonzero;stroke:none"
               transform="matrix(1,0,0,-1,178.917,345.417)"><tspan
                 id="tspan176"
                 y="0"
                 x="0">6</tspan></text>
</g><path
             id="path180"
             style="fill:none;stroke:#000000;stroke-width:5;stroke-linecap:butt;stroke-linejoin:round;stroke-miterlimit:10;stroke-dasharray:none;stroke-opacity:1"
             d="M 1873.33,4215.84 H 1985" /><path
             id="path182"
             style="fill:none;stroke:#000000;stroke-width:5;stroke-linecap:butt;stroke-linejoin:round;stroke-miterlimit:10;stroke-dasharray:none;stroke-opacity:1"
             d="M 13042.5,4215.84 H 12930" /><g
             transform="scale(10)"
             id="g184"><text
               id="text188"
               style="font-variant:normal;font-weight:normal;font-size:10px;font-family:Helvetica;-inkscape-font-specification:Helvetica;writing-mode:lr-tb;fill:#000000;fill-opacity:1;fill-rule:nonzero;stroke:none"
               transform="matrix(1,0,0,-1,178.917,417.917)"><tspan
                 id="tspan186"
                 y="0"
                 x="0">8</tspan></text>
</g><path
             id="path190"
             style="fill:none;stroke:#000000;stroke-width:5;stroke-linecap:butt;stroke-linejoin:round;stroke-miterlimit:10;stroke-dasharray:none;stroke-opacity:1"
             d="M 1873.33,4940 H 1985" /><path
             id="path192"
             style="fill:none;stroke:#000000;stroke-width:5;stroke-linecap:butt;stroke-linejoin:round;stroke-miterlimit:10;stroke-dasharray:none;stroke-opacity:1"
             d="M 13042.5,4940 H 12930" /><g
             transform="scale(10)"
             id="g194"><text
               id="text198"
               style="font-variant:normal;font-weight:normal;font-size:10px;font-family:Helvetica;-inkscape-font-specification:Helvetica;writing-mode:lr-tb;fill:#000000;fill-opacity:1;fill-rule:nonzero;stroke:none"
               transform="matrix(1,0,0,-1,173.333,490.334)"><tspan
                 id="tspan196"
                 y="0"
                 x="0 5.5599999">10</tspan></text>
</g><path
             id="path200"
             style="fill:none;stroke:#000000;stroke-width:5;stroke-linecap:butt;stroke-linejoin:round;stroke-miterlimit:10;stroke-dasharray:none;stroke-opacity:1"
             d="M 1873.33,4940 H 13042.5" /><path
             id="path202"
             style="fill:none;stroke:#000000;stroke-width:5;stroke-linecap:butt;stroke-linejoin:round;stroke-miterlimit:10;stroke-dasharray:none;stroke-opacity:1"
             d="M 1873.33,591.668 H 13042.5" /><path
             id="path204"
             style="fill:none;stroke:#000000;stroke-width:5;stroke-linecap:butt;stroke-linejoin:round;stroke-miterlimit:10;stroke-dasharray:none;stroke-opacity:1"
             d="M 13042.5,591.668 V 4940" /><path
             id="path206"
             style="fill:none;stroke:#000000;stroke-width:5;stroke-linecap:butt;stroke-linejoin:round;stroke-miterlimit:10;stroke-dasharray:none;stroke-opacity:1"
             d="M 1873.33,591.668 V 4940" /></g></g><g
         id="g208"><g
           clip-path="url(#clipPath214)"
           id="g210"><path
             id="path216"
             style="fill:none;stroke:#0000ff;stroke-width:20;stroke-linecap:butt;stroke-linejoin:round;stroke-miterlimit:10;stroke-dasharray:none;stroke-opacity:1"
             d="m 3264.17,1018.33 273.33,0.84 255.83,0.83 293.34,0.83 287.5,0.84 279.16,0.83 264.17,0.83 271.67,1.67 406.66,1.67 191.67,1.66 264.17,2.5 289.16,3.34 272.5,4.16 151.67,2.5 135.83,5 141.67,6.67 45.83,3.33 38.34,4.17 14.16,1.67 26.67,4.16 29.17,5.84 40,13.33 35,16.67 59.16,53.33 20.84,25.83 57.5,73.34 35.83,46.66 25,31.67 253.33,329.17 304.17,395.83 303.33,392.5 250.84,325.83 267.5,347.5 290,375.84 128.33,166.66 164.17,209.17 121.66,160.83 140.84,183.34 58.33,75.83 28.33,36.67 22.5,30 26.67,33.33 40,52.5 20.83,26.67 28.34,37.5 29.16,36.66 22.5,30 58.37,75.84 33.3,43.33 28.3,36.67 21.7,28.33 32.5,41.67 16.7,21.66 63.3,18.34 44.2,3.33 62.5,0.83 49.1,1.67 47.5,1.67 60.9,1.66 125.8,3.34 131.7,3.33 198.3,5.83 282.5,6.67 245,6.67 173.3,8.33" /><path
             id="path218"
             style="fill:none;stroke:#000000;stroke-width:20;stroke-linecap:butt;stroke-linejoin:round;stroke-miterlimit:10;stroke-dasharray:none;stroke-opacity:1"
             d="m 3253.33,1057.5 281.67,1.67 281.67,0.83 291.66,1.67 275.84,1.66 263.33,1.67 276.67,1.67 280.83,2.5 285.83,2.5 280,2.5 282.5,3.33 285.84,5 265.83,5.83 280,8.34 157.5,8.33 75,5.83 40,4.17 27.5,2.5 15.83,2.5 20.84,3.33 14.16,2.5 10.84,2.5 24.16,5.84 -0.83,-0.84 28.33,10 33.34,18.34 11.66,10.83 17.5,20 15,18.33 32.5,41.67 32.5,42.5 14.17,18.33 26.67,35 3.33,4.17 254.17,329.17 293.33,380.83 270,350.83 276.67,359.17 292.5,380 279.16,361.67 262.5,392.5 275.84,305 283.33,370 30.8,38.33 30,39.17 22.5,29.17 29.2,36.66 26.7,26.67 33.3,19.17 22.5,8.33 41.7,10 27.5,5 76.6,8.33 83.4,7.5 125.8,6.67 158.3,6.67 125,3.33 285,6.67 308.4,5 250,2.5" /></g></g><g
         id="g220"><g
           clip-path="url(#clipPath226)"
           id="g222"><g
             transform="scale(10)"
             id="g228"><text
               id="text232"
               style="font-variant:normal;font-weight:normal;font-size:20px;font-family:Helvetica;-inkscape-font-specification:Helvetica;writing-mode:lr-tb;fill:#000000;fill-opacity:1;fill-rule:nonzero;stroke:none"
               transform="matrix(1,0,0,-1,731.5,28.1668)"><tspan
                 id="tspan230"
                 y="0"
                 x="0">U</tspan></text>
<text
               id="text236"
               style="font-variant:normal;font-weight:normal;font-size:16px;font-family:Helvetica;-inkscape-font-specification:Helvetica;writing-mode:lr-tb;fill:#000000;fill-opacity:1;fill-rule:nonzero;stroke:none"
               transform="matrix(1,0,0,-1,745.6668,23.1668)"><tspan
                 id="tspan234"
                 y="0"
                 x="0 2">in</tspan></text>
<text
               id="text240"
               style="font-variant:normal;font-weight:normal;font-size:20px;font-family:Helvetica;-inkscape-font-specification:Helvetica;writing-mode:lr-tb;fill:#000000;fill-opacity:1;fill-rule:nonzero;stroke:none"
               transform="matrix(1,0,0,-1,755.61321,28.1668)"><tspan
                 id="tspan238"
                 y="0"
                 x="0 4 16">[V]</tspan></text>
<text
               id="text244"
               style="font-variant:normal;font-weight:normal;font-size:20px;font-family:Helvetica;-inkscape-font-specification:Helvetica;writing-mode:lr-tb;fill:#000000;fill-opacity:1;fill-rule:nonzero;stroke:none"
               transform="matrix(0,1,1,0,161.75,259.917)"><tspan
                 id="tspan242"
                 y="0"
                 x="0">U</tspan></text>
<text
               id="text248"
               style="font-variant:normal;font-weight:normal;font-size:16px;font-family:Helvetica;-inkscape-font-specification:Helvetica;writing-mode:lr-tb;fill:#000000;fill-opacity:1;fill-rule:nonzero;stroke:none"
               transform="matrix(0,1,1,0,166.75,275.08341)"><tspan
                 id="tspan246"
                 y="0"
                 x="0 8 16">out</tspan></text>
<text
               id="text252"
               style="font-variant:normal;font-weight:normal;font-size:20px;font-family:Helvetica;-inkscape-font-specification:Helvetica;writing-mode:lr-tb;fill:#000000;fill-opacity:1;fill-rule:nonzero;stroke:none"
               transform="matrix(0,1,1,0,161.75,297.94701)"><tspan
                 id="tspan250"
                 y="0"
                 x="0 6 17">[V]</tspan></text>
</g></g></g></g></g></svg>
